<?xml version="1.0" standalone="no"?>
<!DOCTYPE svg PUBLIC "-//W3C//DTD SVG 20010904//EN"
 "http://www.w3.org/TR/2001/REC-SVG-20010904/DTD/svg10.dtd">
<svg version="1.0" xmlns="http://www.w3.org/2000/svg"
 width="500.000000pt" height="500.000000pt" viewBox="0 0 500.000000 500.000000"
 preserveAspectRatio="xMidYMid meet">
<g transform="translate(0.000000,500.000000) scale(0.100000,-0.100000)"
fill="#000000" stroke="none">
<path d="M2561 3706 c14 -15 20 -16 35 -6 18 11 18 11 0 6 -10 -4 -26 -1 -35
6 -14 11 -14 10 0 -6z"/>
<path d="M2422 3688 c-6 -6 -31 -11 -56 -12 -24 -1 -43 -3 -41 -6 2 -3 -4 -6
-13 -7 -22 -1 -48 -8 -101 -27 -50 -18 -54 -19 -47 -8 3 5 -1 9 -8 9 -8 0 -12
-6 -9 -13 2 -7 -5 -17 -16 -23 -23 -13 -42 -15 -22 -2 9 6 10 11 2 15 -6 4
-11 2 -11 -4 0 -6 -4 -8 -10 -5 -5 3 -7 0 -5 -7 3 -8 -7 -23 -22 -34 -30 -23
-50 -28 -45 -12 1 5 -2 7 -8 3 -6 -3 -9 -9 -6 -13 2 -4 -7 -18 -20 -32 -17
-17 -24 -20 -24 -10 0 8 -6 4 -13 -9 -6 -14 -19 -26 -27 -28 -13 -4 -13 -3 0
7 12 9 12 11 1 8 -8 -2 -15 -12 -17 -22 -4 -26 -44 -66 -68 -67 -21 0 -21 -1
-1 -9 17 -7 18 -9 2 -9 -9 -1 -22 -12 -28 -25 -8 -16 -18 -23 -31 -21 -10 2
-16 0 -13 -6 4 -5 11 -7 16 -4 5 4 9 -1 9 -9 0 -17 -16 -30 -23 -19 -2 5 -2 2
0 -5 3 -15 -21 -55 -28 -47 -3 2 -6 -5 -6 -17 -1 -11 -8 -28 -16 -37 -8 -9
-17 -29 -20 -46 -4 -16 -17 -68 -30 -115 -19 -71 -23 -105 -21 -200 2 -63 10
-142 19 -175 8 -33 17 -65 18 -72 2 -7 6 -16 10 -19 4 -4 1 -14 -6 -22 -9 -13
-9 -14 1 -8 7 4 12 1 12 -8 0 -9 5 -16 11 -16 5 0 8 -4 5 -8 -5 -8 -1 -16 42
-96 17 -31 19 -43 10 -60 -6 -12 -7 -18 -3 -14 10 10 47 -11 40 -22 -3 -6 1
-7 9 -4 10 4 19 -1 23 -12 4 -10 17 -28 30 -40 13 -12 20 -25 15 -28 -11 -7
-34 17 -27 27 3 4 2 5 -2 2 -10 -8 -13 -36 -3 -30 5 3 12 0 15 -6 4 -5 12 -8
19 -6 18 7 49 -20 43 -37 -8 -20 16 -39 30 -25 8 8 13 7 18 -2 6 -8 4 -10 -5
-4 -9 5 -11 4 -6 -4 4 -6 11 -9 16 -6 5 3 17 -6 28 -20 11 -14 26 -25 35 -25
8 0 25 -8 38 -19 31 -24 139 -75 162 -77 10 -1 21 -5 25 -9 4 -5 -1 -5 -11 -2
-11 4 -16 3 -12 -4 4 -6 13 -8 20 -5 7 2 41 -2 75 -10 82 -19 357 -23 345 -5
-1 3 7 7 18 8 38 3 62 9 75 17 6 4 17 4 24 0 6 -4 8 -3 4 4 -7 11 30 28 53 23
7 -1 11 2 8 7 -5 8 54 35 69 32 4 -1 10 4 15 12 10 16 29 18 49 4 13 -10 13
-9 1 6 -7 10 -18 15 -24 11 -6 -4 -7 -1 -3 6 5 7 14 10 22 7 8 -3 14 1 14 10
0 8 4 13 9 9 6 -3 15 4 21 15 6 11 15 18 20 15 4 -3 10 1 13 7 3 10 7 10 19 0
20 -16 37 4 19 21 -9 9 -11 7 -5 -8 5 -15 4 -17 -5 -9 -13 12 -4 47 10 38 5
-3 8 0 7 8 -2 7 3 12 11 10 9 -2 11 3 7 15 -6 15 -4 14 16 -3 14 -12 18 -13
10 -3 -16 21 -5 54 13 39 9 -8 11 -5 8 13 -3 14 2 29 11 36 9 8 16 19 16 26 0
13 45 65 56 65 3 0 1 -6 -5 -14 -8 -10 -9 -16 -1 -21 12 -7 11 -10 15 38 2 33
1 36 -12 20 -7 -10 0 8 17 40 17 32 28 62 25 67 -6 9 29 33 37 25 3 -3 5 2 5
10 0 11 -4 12 -14 4 -10 -9 -12 -3 -7 32 3 24 12 66 20 93 15 51 18 85 5 53
-4 -11 -6 31 -5 92 1 61 -1 109 -5 107 -3 -2 -7 10 -8 27 -1 18 -4 48 -7 67
-3 19 -5 44 -6 55 0 15 -2 17 -9 7 -6 -10 -10 -9 -14 7 -3 12 -1 19 4 15 15
-9 10 6 -11 33 -11 14 -17 29 -14 34 3 5 0 9 -7 9 -7 0 -9 3 -6 7 4 3 0 15
-10 25 -9 10 -13 18 -9 18 4 0 1 10 -6 23 -7 12 -13 29 -13 37 -1 8 -6 14 -13
13 -6 -2 -19 11 -27 27 -9 17 -18 30 -21 30 -3 0 -2 -5 2 -12 4 -6 3 -8 -4 -5
-5 4 -8 16 -5 27 4 15 2 19 -10 14 -12 -4 -18 2 -23 21 -3 14 -9 24 -11 21 -3
-2 -17 7 -32 22 -15 15 -37 34 -49 42 -24 16 -30 35 -9 27 8 -3 14 1 14 9 0
12 -4 12 -23 -1 -21 -13 -24 -13 -33 3 -6 9 -11 14 -11 10 0 -5 -9 1 -20 12
-11 11 -27 20 -36 20 -8 0 -12 5 -9 10 3 6 -1 11 -9 11 -39 3 -59 16 -49 32 4
8 1 7 -9 -1 -11 -9 -18 -10 -23 -2 -3 6 -11 7 -17 4 -6 -4 -13 -2 -17 5 -4 6
-34 16 -67 22 -32 7 -63 16 -69 22 -7 7 -4 8 8 4 11 -4 16 -3 12 3 -3 6 -15
10 -25 10 -14 0 -18 -5 -13 -17 4 -11 3 -14 -5 -9 -6 4 -32 7 -56 8 -25 0 -43
4 -41 8 3 4 -12 4 -32 -1 -22 -4 -42 -4 -48 1 -7 6 -16 5 -23 -2z m259 -43
c297 -64 529 -292 621 -612 31 -105 32 -331 4 -438 -55 -203 -186 -397 -339
-498 -137 -91 -250 -127 -422 -134 -106 -4 -132 -2 -218 21 -159 41 -285 113
-397 226 -292 295 -344 736 -128 1072 22 35 77 99 122 143 200 197 481 278
757 220z m-875 -1316 c19 -22 19 -22 -3 -8 -13 8 -23 17 -23 21 0 12 6 9 26
-13z"/>
<path d="M2342 3574 c-182 -40 -358 -151 -468 -297 -183 -242 -217 -572 -87
-836 100 -202 270 -339 497 -401 96 -27 277 -30 382 -7 243 53 467 222 569
430 53 109 73 182 81 297 7 101 -14 241 -50 329 -99 245 -336 436 -604 487
-90 17 -235 16 -320 -2z m153 -22 c-4 -12 -3 -12 9 -3 12 10 13 9 9 -8 -3 -12
-9 -21 -13 -21 -4 0 -8 -17 -8 -38 0 -20 -5 -50 -11 -65 -14 -35 -14 -40 -1
-32 6 3 10 1 10 -5 0 -6 -7 -13 -15 -17 -9 -3 -22 -18 -30 -34 -14 -25 -13
-28 4 -34 11 -3 22 -13 25 -21 6 -15 8 -15 31 0 22 14 25 14 40 -1 13 -12 19
-13 25 -4 4 7 10 12 14 11 4 0 19 8 34 20 15 12 21 19 15 15 -7 -3 -13 -1 -13
5 0 6 -12 2 -26 -9 -26 -20 -54 -19 -54 4 0 19 27 38 42 28 18 -11 60 -11 49
0 -6 6 -6 19 0 34 5 15 5 22 0 18 -5 -3 -12 3 -14 12 -2 10 -2 4 0 -14 4 -38
-6 -46 -32 -26 -11 9 -13 13 -5 11 11 -4 15 2 14 26 0 17 -3 38 -6 46 -4 8
-12 32 -18 52 -12 39 -30 60 -30 34 0 -8 8 -41 19 -75 l19 -60 -23 -21 c-21
-20 -22 -20 -39 -1 -17 18 -17 23 -1 95 22 97 31 103 128 82 40 -8 91 -22 115
-30 23 -8 42 -13 42 -10 0 3 13 -4 29 -15 15 -11 31 -18 34 -15 3 3 11 -3 18
-14 7 -11 18 -18 25 -15 7 2 19 -5 26 -16 7 -12 20 -21 28 -21 8 0 37 -20 63
-45 25 -25 50 -46 54 -48 15 -4 72 -74 66 -81 -3 -3 -1 -6 5 -6 7 0 12 -9 12
-19 0 -11 5 -23 12 -27 7 -4 8 -3 4 4 -4 7 -5 12 -2 12 3 0 17 -18 31 -40 23
-37 24 -42 10 -56 -18 -18 -18 -21 -3 -30 6 -4 8 -3 4 4 -10 16 14 26 27 12 9
-10 9 -11 0 -6 -15 8 -5 -29 19 -73 11 -19 20 -47 20 -62 1 -16 4 -27 7 -25 3
2 7 -10 8 -27 7 -118 7 -157 1 -159 -4 -2 -9 -28 -11 -58 -2 -30 -9 -68 -15
-83 -7 -16 -9 -33 -6 -39 4 -6 2 -8 -3 -5 -7 4 -13 -7 -17 -28 -5 -26 -11 -33
-24 -29 -13 5 -14 4 -4 -4 12 -8 11 -15 -2 -41 -9 -17 -21 -29 -27 -26 -5 4
-9 3 -8 -2 4 -22 -3 -25 -17 -7 -15 17 -15 17 0 -8 13 -22 13 -27 1 -32 -8 -3
-17 -17 -21 -31 -5 -21 -9 -23 -20 -14 -8 7 -17 9 -21 5 -3 -3 -1 -6 5 -6 7 0
12 -4 12 -10 0 -5 -5 -9 -11 -7 -10 2 -15 -5 -38 -50 -9 -20 -32 -24 -44 -8
-5 5 -5 0 -2 -12 5 -17 2 -23 -10 -23 -9 0 -19 -8 -22 -19 -2 -10 -16 -24 -29
-30 -35 -15 -41 -14 -18 5 18 15 18 15 -2 5 -12 -6 -24 -18 -28 -26 -3 -9 -19
-21 -36 -26 -16 -6 -30 -15 -30 -21 0 -5 -4 -6 -10 -3 -5 3 -10 1 -10 -4 0 -6
-3 -10 -7 -9 -5 1 -26 -6 -48 -16 -51 -23 -100 -32 -90 -17 9 16 -6 13 -25 -4
-40 -37 -345 -29 -420 10 -16 8 -36 15 -44 15 -8 0 -21 7 -30 15 -8 9 -19 16
-23 17 -34 4 -92 51 -86 69 1 3 -5 6 -13 6 -19 0 -18 -5 9 -28 l22 -20 -27 17
c-16 9 -28 20 -28 25 0 5 -6 9 -13 9 -15 0 -48 36 -40 44 4 3 0 6 -8 6 -18 0
-85 80 -67 81 7 0 5 4 -6 8 -10 4 -29 25 -42 47 -36 60 -74 133 -74 141 0 5
-4 23 -9 41 -5 18 -8 50 -7 72 3 31 1 37 -8 25 -8 -12 -10 14 -9 102 3 151 6
183 16 183 5 0 7 6 4 13 -5 14 21 107 34 123 5 6 6 14 2 17 -3 4 1 7 11 7 9 0
14 5 11 10 -3 6 3 23 14 39 12 16 21 34 21 41 0 17 51 76 62 72 5 -1 7 2 3 8
-8 13 30 54 43 46 5 -3 9 2 8 12 0 9 5 16 12 14 6 -1 12 3 12 9 0 17 62 68 92
74 15 4 26 10 23 15 -3 4 3 11 13 14 9 4 33 15 52 25 21 12 39 16 45 10 5 -5
14 -9 20 -9 5 0 4 4 -4 9 -21 14 21 33 114 51 105 21 158 21 150 2z m18 -243
c-12 -12 -26 -17 -36 -13 -21 8 -21 18 -1 38 12 13 20 14 36 5 20 -11 20 -11
1 -30z"/>
<path d="M2768 3503 c6 -3 10 -8 8 -11 -2 -4 9 -7 25 -7 37 -1 21 17 -18 21
-15 1 -22 0 -15 -3z"/>
<path d="M2140 3450 c-9 -6 -10 -10 -3 -10 6 0 15 5 18 10 8 12 4 12 -15 0z"/>
<path d="M2412 3325 c0 -16 2 -22 5 -12 2 9 2 23 0 30 -3 6 -5 -1 -5 -18z"/>
<path d="M2165 3310 c-3 -6 1 -7 9 -4 18 7 21 14 7 14 -6 0 -13 -4 -16 -10z"/>
<path d="M2745 3310 c-4 -6 -10 -8 -14 -5 -5 2 -6 -14 -4 -37 5 -40 5 -41 -23
-35 l-29 6 30 -14 c21 -10 24 -14 12 -15 -11 0 -21 -9 -24 -19 -5 -20 -18 -22
-44 -6 -21 14 -30 40 -16 54 8 8 8 11 -1 11 -7 0 -12 5 -12 11 0 5 4 8 8 5 5
-3 9 1 9 9 0 12 -4 12 -20 -2 -10 -10 -21 -17 -23 -16 -12 5 -44 -12 -44 -24
0 -8 -5 -11 -10 -8 -6 4 -7 11 -4 17 5 7 2 8 -5 4 -9 -6 -8 -12 4 -26 13 -15
14 -23 5 -39 -13 -25 -32 -28 -24 -3 5 14 4 14 -4 2 -7 -9 -7 -18 -1 -26 6 -8
3 -13 -10 -17 -17 -4 -19 -2 -10 22 5 14 17 32 26 38 15 11 14 13 -3 20 -10 3
-24 14 -31 23 -6 9 -20 16 -30 15 -21 -1 -74 -35 -56 -35 6 0 16 7 23 15 20
24 24 10 5 -18 -11 -17 -22 -23 -35 -20 -11 3 -18 9 -15 13 5 8 -13 19 -26 16
-11 -2 -39 26 -33 35 3 5 -1 6 -9 3 -8 -3 -18 -1 -22 5 -3 6 -23 11 -43 11
-26 0 -33 3 -22 9 8 6 18 7 24 4 5 -3 6 -1 2 5 -4 7 -14 8 -29 3 -12 -5 -48
-14 -79 -21 -32 -6 -58 -16 -58 -21 0 -6 14 -7 38 -2 88 19 158 -4 281 -92 35
-25 74 -45 87 -45 35 0 76 41 78 78 1 22 8 34 25 42 23 10 24 10 18 -23 -4
-29 -2 -36 16 -45 44 -21 60 -22 83 -7 27 17 58 71 49 85 -3 5 3 14 14 19 29
16 32 14 25 -16 -21 -85 -65 -118 -152 -111 -45 4 -63 1 -96 -18 -67 -39 -122
-28 -216 41 -86 63 -126 75 -252 77 -62 0 -120 -1 -128 -4 -31 -8 -91 -48 -86
-57 4 -5 0 -12 -6 -15 -9 -4 -8 -5 2 -4 8 1 37 -9 63 -22 36 -17 45 -25 35
-32 -9 -6 -6 -7 9 -3 17 5 31 -3 63 -36 22 -23 40 -37 40 -32 0 5 -3 13 -7 19
-5 5 7 -6 25 -26 17 -19 32 -40 32 -47 0 -7 11 -20 25 -29 14 -9 25 -20 25
-25 0 -5 7 -17 17 -28 27 -33 38 -149 13 -143 -8 2 -12 0 -7 -4 4 -4 0 -18 -9
-32 -8 -13 -13 -26 -11 -29 3 -3 12 8 21 24 19 36 20 25 1 -18 -8 -19 -15 -29
-15 -24 0 6 -5 2 -11 -8 -5 -9 -7 -22 -4 -27 3 -6 3 -10 -2 -10 -4 0 -17 -12
-27 -27 -11 -14 -14 -23 -7 -19 10 6 10 4 0 -12 -7 -12 -17 -18 -22 -15 -4 3
-7 -3 -5 -13 2 -11 -1 -18 -7 -17 -5 1 -11 -8 -12 -20 -1 -12 -5 -45 -8 -73
-5 -36 -3 -58 6 -75 8 -13 14 -31 14 -39 1 -8 7 -14 15 -12 8 2 12 0 7 -4 -4
-4 18 -25 48 -47 30 -21 55 -41 55 -44 0 -3 -6 0 -13 6 -10 8 -14 7 -14 -3 0
-17 26 -14 38 5 5 8 9 9 9 4 0 -14 70 -6 90 10 24 19 41 27 39 18 -1 -4 -1
-19 0 -33 1 -18 4 -21 10 -11 6 9 11 10 15 2 4 -6 13 -11 20 -11 18 0 56 35
56 51 0 12 2 12 9 1 12 -20 17 -19 43 5 36 34 72 43 169 43 86 0 92 1 119 29
56 55 52 122 -15 260 -51 104 -75 179 -75 231 0 49 27 126 61 176 29 43 93
104 109 104 5 0 7 9 5 21 -3 16 0 19 18 14 12 -3 4 3 -17 15 -45 23 -76 26
-76 8 0 -8 -6 -6 -17 5 -16 16 -16 19 0 46 23 39 21 67 -5 86 -22 15 -24 14
-40 -6 -12 -14 -18 -16 -18 -7 0 8 5 19 12 26 7 7 9 12 6 12 -4 0 -10 -5 -13
-10z m-642 -90 c156 -25 270 -124 337 -292 19 -46 28 -58 46 -58 17 0 43 -27
32 -35 -17 -11 -71 -26 -81 -22 -7 3 -26 36 -41 75 -77 190 -237 314 -408 316
-70 0 -80 11 -18 19 64 7 74 7 133 -3z m385 -8 c18 -12 -20 -45 -42 -36 -19 7
-20 16 -4 32 14 14 28 15 46 4z m-503 -47 c66 -19 161 -80 207 -135 63 -72 82
-124 83 -215 0 -77 -2 -84 -59 -203 -67 -141 -77 -191 -47 -239 42 -67 145
-107 186 -73 20 17 13 64 -16 116 -10 19 -19 48 -19 64 0 55 102 143 146 126
15 -6 15 -8 -2 -27 -10 -11 -26 -18 -35 -16 -26 7 -59 -21 -59 -49 0 -14 11
-47 25 -74 14 -27 25 -62 25 -78 0 -49 -95 -122 -158 -122 -47 0 -122 57 -150
114 -22 45 -24 54 -13 98 6 27 39 99 73 160 76 136 86 193 46 280 -50 107
-164 215 -278 263 -93 39 -73 43 45 10z m108 -4 c4 -1 12 -1 18 -1 5 0 7 -5 3
-12 -5 -8 -2 -9 9 -5 10 4 17 2 17 -4 0 -6 9 -9 20 -6 14 3 26 -3 40 -20 11
-14 20 -22 20 -17 0 4 9 -2 20 -14 12 -12 25 -22 31 -22 6 0 7 -4 4 -10 -3 -5
-11 -10 -16 -10 -6 0 -7 4 -4 10 3 6 -1 7 -10 3 -23 -8 3 -25 27 -17 24 7 52
-47 35 -66 -8 -9 -8 -11 -1 -7 7 4 24 -9 38 -28 22 -28 24 -35 11 -35 -9 0
-13 -5 -10 -10 4 -6 10 -8 14 -6 4 3 12 -8 19 -23 7 -15 20 -36 30 -47 10 -11
18 -30 17 -43 -1 -12 4 -25 11 -28 10 -4 11 -10 4 -24 -8 -14 -6 -21 11 -29
16 -9 18 -14 8 -26 -22 -26 -60 -10 -42 19 4 6 8 21 10 32 1 11 -1 14 -3 7 -3
-6 -11 -9 -16 -6 -6 4 -8 2 -4 -4 3 -6 1 -14 -5 -18 -9 -5 -10 1 -6 23 3 18 1
35 -6 43 -9 10 -9 11 0 6 6 -3 14 -2 18 4 3 5 1 10 -4 10 -6 0 -11 11 -11 25
0 13 -12 36 -26 50 -25 25 -27 25 -45 9 -18 -16 -19 -16 -19 3 0 11 -7 37 -15
56 -8 20 -12 42 -9 50 3 8 -2 20 -11 27 -8 7 -15 9 -15 4 0 -5 -7 2 -16 14 -9
13 -13 31 -9 45 5 19 4 19 -5 5 -9 -15 -13 -16 -28 -3 -9 8 -26 22 -37 30 -19
16 -19 16 5 11 18 -4 16 -2 -8 9 -18 9 -38 12 -44 9 -6 -4 -8 -3 -5 3 6 10
-15 25 -37 27 -5 1 -11 7 -14 14 -3 11 0 12 14 4 11 -6 22 -10 27 -11z m703
-36 c-2 -19 1 -32 5 -29 5 3 9 0 9 -6 0 -6 5 -8 10 -5 6 3 10 4 10 0 0 -3 -12
-10 -26 -15 -17 -7 -24 -16 -21 -25 4 -10 1 -12 -10 -8 -12 5 -14 3 -8 -7 5
-8 1 -18 -10 -27 -11 -7 -16 -13 -12 -13 4 0 -3 -19 -15 -42 -31 -59 -36 -199
-9 -258 10 -22 21 -37 25 -32 4 4 6 3 5 -3 -4 -14 12 -59 23 -66 5 -3 2 -9 -7
-12 -9 -4 -14 -3 -11 2 3 5 -1 14 -9 21 -8 7 -15 21 -15 32 0 10 -4 16 -10 13
-6 -4 -7 1 -3 11 4 12 3 15 -5 10 -8 -5 -10 -1 -5 10 4 11 3 15 -4 11 -7 -5
-9 1 -6 15 3 15 2 19 -4 11 -6 -9 -12 -7 -21 7 -7 12 -8 20 -2 20 5 0 10 5 10
11 0 5 -4 8 -9 5 -13 -8 -37 26 -35 51 0 12 -2 20 -6 18 -11 -7 -22 24 -13 37
4 7 1 8 -7 3 -10 -6 -12 -2 -8 17 2 13 -1 30 -9 36 -17 16 -18 55 0 47 6 -4 4
0 -7 9 -10 8 -15 19 -11 25 3 6 2 11 -3 11 -17 0 -8 88 11 107 18 17 18 17 15
-7 -2 -15 -9 -24 -17 -22 -9 2 -11 -3 -7 -13 3 -9 6 -23 6 -32 0 -9 6 -13 15
-10 8 4 17 2 20 -2 6 -11 45 -2 45 11 0 5 5 6 10 3 6 -4 8 -10 5 -15 -11 -17
29 -20 48 -3 19 18 20 17 8 -7 -10 -21 -9 -22 1 -6 7 10 21 26 30 35 17 14 16
17 -14 48 l-32 33 32 11 c18 6 32 15 32 21 0 5 4 7 9 4 5 -4 8 -22 7 -41z
m-316 29 c0 -8 -19 -13 -24 -6 -3 5 1 9 9 9 8 0 15 -2 15 -3z m389 -18 c10
-12 8 -17 -8 -25 -19 -11 -51 -6 -51 8 0 11 23 31 36 31 6 0 17 -6 23 -14z
m-167 -18 c-7 -7 -18 -13 -25 -13 -7 -1 -11 -6 -10 -12 2 -7 -8 -21 -22 -31
-13 -11 -21 -23 -17 -27 4 -5 1 -5 -6 -1 -7 4 -10 11 -7 16 3 5 0 12 -5 15
-15 9 20 47 37 41 7 -3 15 -1 18 5 4 5 10 7 15 4 5 -3 11 -1 15 5 3 5 9 10 13
10 3 0 0 -6 -6 -12z m-312 -26 c0 4 17 1 38 -6 20 -7 43 -11 50 -9 6 3 12 -3
12 -12 0 -9 -4 -13 -10 -10 -6 3 -7 -1 -4 -9 3 -9 1 -16 -6 -16 -6 0 -9 -4 -6
-9 3 -4 0 -16 -7 -26 -12 -16 -15 -15 -32 11 -20 30 -22 34 -24 60 0 8 -5 12
-11 9 -5 -3 -10 -4 -10 -1 0 2 -3 13 -6 23 -5 15 -4 15 5 3 6 -8 11 -12 11 -8z
m156 -82 c19 -111 55 -210 111 -305 92 -158 113 -200 113 -236 0 -65 -76 -130
-126 -107 -23 11 -64 75 -64 102 0 20 -14 21 -30 1 -8 -10 -17 -12 -29 -5 -13
6 -22 3 -35 -11 -17 -20 -18 -20 -37 -3 -13 12 -19 13 -19 4 0 -10 -3 -10 -15
0 -19 16 -19 44 -1 59 10 9 15 8 20 -4 8 -23 35 -18 47 8 11 25 49 54 49 37 0
-5 -4 -10 -10 -10 -5 0 -10 -7 -10 -15 0 -30 27 -14 53 32 l26 47 6 -29 c13
-65 41 -141 58 -158 22 -22 66 -19 81 6 12 19 6 33 -98 211 -62 107 -106 209
-126 294 -10 45 -14 51 -27 40 -10 -8 -11 -14 -4 -16 6 -2 8 -8 5 -13 -3 -6
-1 -16 5 -23 8 -9 7 -13 -4 -13 -9 0 -15 10 -15 24 0 13 -4 22 -9 19 -5 -4 -8
2 -6 11 1 10 7 17 13 16 10 -2 52 94 52 119 0 33 14 -11 26 -82z m186 47 c-18
-17 -23 -18 -37 -7 -14 12 -14 15 1 31 13 15 21 16 36 8 20 -11 20 -11 0 -32z
m-462 -77 c0 -5 -2 -10 -4 -10 -3 0 -8 5 -11 10 -3 6 -1 10 4 10 6 0 11 -4 11
-10z m86 -145 c29 -71 20 -119 -52 -264 -74 -147 -75 -166 -13 -166 23 0 35
-5 37 -16 8 -44 -85 -20 -107 27 -20 45 -12 84 43 192 66 131 80 173 73 223
-6 48 0 50 19 4z m-41 -4 c3 -5 1 -12 -5 -16 -5 -3 -10 1 -10 9 0 18 6 21 15
7z m210 -31 c-3 -4 2 -13 10 -20 8 -7 15 -23 15 -36 0 -13 5 -24 11 -24 5 0 7
-5 3 -11 -8 -14 -23 1 -27 28 -1 11 -8 27 -14 35 -12 15 -13 49 -1 42 5 -3 6
-9 3 -14z m-12 -25 c20 -28 16 -33 -7 -9 -14 14 -18 14 -38 0 -29 -20 -39 -20
-31 0 5 13 35 32 53 33 3 0 13 -11 23 -24z m-210 -30 c-3 -9 -8 -14 -10 -11
-3 3 -2 9 2 15 9 16 15 13 8 -4z m206 -4 c12 -8 12 -12 2 -25 -24 -29 -58 -15
-45 18 7 18 22 20 43 7z m-127 -68 c0 -4 7 -17 14 -28 8 -11 14 -24 14 -30 0
-5 -5 -2 -11 8 -11 18 -29 14 -29 -6 0 -7 4 -6 10 3 11 17 13 10 4 -14 -3 -9
-10 -13 -15 -10 -5 3 -9 0 -9 -5 0 -6 -7 -11 -16 -11 -9 0 -12 -5 -8 -12 5 -7
3 -8 -6 -3 -11 7 -10 10 1 19 19 15 40 56 42 83 1 21 8 25 9 6z m178 8 c0 -16
-30 -33 -46 -27 -13 5 -14 9 -4 21 13 16 50 21 50 6z m27 -18 c-4 -3 2 -12 13
-20 11 -8 20 -23 20 -34 0 -10 5 -19 11 -19 6 0 9 -6 6 -14 -3 -8 1 -20 9 -27
12 -10 13 -9 8 7 -5 15 -4 16 4 4 6 -8 9 -28 6 -45 -3 -22 -2 -25 4 -11 10 24
19 11 17 -26 -1 -20 2 -24 11 -17 8 6 13 5 17 -5 8 -19 -16 -38 -37 -30 -13 5
-16 14 -12 30 5 17 2 23 -6 22 -7 -2 -12 5 -10 15 2 9 -2 17 -8 17 -5 0 -10
11 -10 23 0 13 -3 27 -7 31 -4 3 -8 16 -10 27 -2 12 -8 29 -14 38 -9 14 -10
14 -5 -1 3 -11 0 -18 -8 -18 -8 0 -21 -12 -31 -26 -9 -14 -19 -23 -22 -21 -3
3 -16 2 -29 -3 -22 -9 -24 -8 -14 10 6 11 8 20 5 20 -3 0 -2 8 3 17 10 18 42
27 42 12 0 -5 5 -9 11 -9 5 0 7 5 3 12 -5 8 -1 9 12 5 17 -6 17 -5 2 5 -15 11
-15 13 0 25 18 13 30 17 19 6z m-92 -30 c-2 -10 -4 -20 -4 -22 -1 -2 -8 2 -16
9 -16 14 -11 30 10 30 7 0 12 -8 10 -17z m299 -79 c3 -8 2 -12 -4 -9 -6 3 -10
0 -10 -7 0 -10 -3 -9 -10 2 -6 9 -5 17 3 22 15 10 14 10 21 -8z m-330 -27
c-10 -6 -20 -4 -27 3 -9 10 -8 12 6 7 12 -5 17 -1 17 11 0 14 2 15 10 2 6 -10
4 -17 -6 -23z m350 -21 c3 -13 9 -32 13 -42 4 -11 3 -15 -4 -11 -11 7 -28 -22
-18 -31 3 -3 5 0 5 6 0 7 5 12 10 12 23 0 -7 -98 -31 -101 -5 -1 -17 -2 -26
-2 -10 -1 -21 -6 -25 -12 -5 -6 -11 -6 -20 3 -10 10 -8 17 11 35 13 12 21 17
17 10 -3 -6 -2 -15 4 -18 6 -4 10 -3 9 2 -4 24 2 35 17 29 15 -6 15 -4 3 11
-12 14 -12 16 0 8 11 -6 13 -3 9 13 -4 12 -2 24 2 27 5 3 5 18 1 33 -8 29 -4
52 9 52 4 0 11 -11 14 -24z m-519 -26 c-3 -18 1 -30 7 -30 7 0 3 -6 -7 -14
-26 -19 -38 -10 -23 17 7 12 13 27 14 32 2 20 4 25 8 25 3 0 3 -13 1 -30z
m-104 -35 c5 4 6 -1 3 -9 -8 -20 30 -73 59 -82 12 -4 25 -12 30 -18 5 -8 10
-7 16 3 8 12 12 12 24 2 13 -10 16 -9 19 6 3 15 5 14 10 -5 3 -12 2 -20 -3
-16 -5 3 -9 0 -9 -6 0 -7 -13 -9 -37 -4 -21 4 -43 7 -50 7 -7 0 -10 4 -7 9 3
4 1 8 -4 8 -5 0 -19 9 -32 20 -13 11 -19 20 -15 20 4 0 1 8 -7 18 -8 9 -15 28
-15 42 -1 14 1 19 4 12 3 -6 9 -10 14 -7z m374 -27 c0 -9 4 -20 9 -25 5 -5 6
-2 2 7 -4 8 0 6 8 -4 9 -11 16 -24 16 -28 0 -5 12 -13 28 -19 25 -9 25 -11 9
-21 -10 -5 -21 -7 -24 -4 -3 3 -18 -1 -34 -9 -31 -17 -59 -11 -59 13 0 8 -3
12 -7 9 -3 -4 -15 1 -26 10 -11 10 -17 12 -13 6 5 -9 2 -11 -7 -7 -18 6 -28
52 -15 61 6 3 15 -1 20 -8 8 -12 9 -11 5 1 -5 21 21 38 57 36 21 -1 31 -7 31
-18z m-115 8 c0 -3 -4 -8 -10 -11 -5 -3 -10 -1 -10 4 0 6 5 11 10 11 6 0 10
-2 10 -4z m245 -96 c3 -6 -1 -7 -9 -4 -18 7 -21 14 -7 14 6 0 13 -4 16 -10z
m-196 -36 c-12 -15 -41 -19 -52 -7 -4 3 0 14 9 24 13 14 21 16 36 8 15 -8 17
-13 7 -25z m31 -2 c0 -4 -10 -13 -22 -21 -23 -14 -23 -14 -4 8 20 22 26 25 26
13z m-98 -55 c-18 -17 -23 -18 -37 -7 -14 12 -14 15 1 31 13 15 21 16 36 8 20
-11 20 -11 0 -32z"/>
<path d="M2731 3127 c2 -1 13 -9 24 -17 19 -14 19 -14 6 3 -7 9 -18 17 -24 17
-6 0 -8 -1 -6 -3z"/>
<path d="M2725 2979 c-4 -6 -5 -12 -2 -15 2 -3 7 2 10 11 7 17 1 20 -8 4z"/>
<path d="M2420 3040 c0 -5 5 -10 11 -10 5 0 7 5 4 10 -3 6 -8 10 -11 10 -2 0
-4 -4 -4 -10z"/>
<path d="M2435 3010 c3 -5 8 -10 11 -10 2 0 4 5 4 10 0 6 -5 10 -11 10 -5 0
-7 -4 -4 -10z"/>
<path d="M2503 2585 c0 -8 4 -12 9 -9 5 3 6 10 3 15 -9 13 -12 11 -12 -6z"/>
<path d="M2566 2328 c3 -5 10 -6 15 -3 13 9 11 12 -6 12 -8 0 -12 -4 -9 -9z"/>
<path d="M2955 3280 c4 -6 -10 -10 -33 -10 -57 0 -68 -19 -42 -69 11 -23 23
-41 26 -41 3 0 3 4 0 8 -6 10 25 9 42 -2 6 -4 16 -5 22 -1 14 9 72 -19 99 -48
24 -27 23 -64 -2 -54 -8 3 -14 -1 -14 -9 0 -7 4 -11 9 -8 11 7 10 -3 -2 -27
-6 -10 -18 -19 -27 -19 -9 0 -13 -3 -10 -6 10 -10 -33 -65 -45 -58 -7 4 -8 2
-4 -4 8 -13 -24 -53 -36 -46 -5 3 -8 2 -7 -3 5 -27 -31 -78 -47 -65 -4 4 -2
-2 6 -12 8 -11 10 -17 4 -13 -11 6 -22 -35 -29 -104 -2 -15 -7 -34 -12 -43 -8
-14 -13 -10 -30 22 -12 20 -24 49 -26 62 -3 14 -8 37 -12 51 -4 15 -3 29 2 32
5 3 8 21 8 41 -1 19 2 33 6 30 5 -3 11 7 15 21 3 13 10 22 15 19 5 -3 8 0 7 7
-2 7 2 13 7 14 19 1 35 16 29 27 -9 14 27 117 40 114 6 -2 7 -1 3 2 -4 2 -3
10 4 18 18 21 2 17 -21 -6 -11 -11 -28 -39 -37 -63 -9 -23 -32 -64 -50 -90
-66 -97 -68 -177 -7 -291 83 -158 96 -185 100 -222 7 -54 -28 -120 -84 -159
-42 -29 -47 -30 -160 -31 -140 0 -145 -1 -136 -15 4 -8 -1 -9 -17 -5 -21 6
-22 5 -6 -4 14 -9 22 -9 33 0 7 7 14 9 14 4 0 -5 45 -8 101 -6 78 1 99 -1 94
-10 -4 -7 0 -5 9 6 8 10 19 15 25 11 6 -3 11 -1 11 5 0 6 4 9 9 5 5 -3 16 2
24 10 9 9 23 12 33 8 16 -6 16 -7 -2 -20 -10 -7 -12 -13 -5 -13 7 0 9 -5 5
-12 -4 -7 -3 -8 5 -4 6 4 9 11 6 16 -3 4 0 10 6 12 5 2 7 11 4 21 -4 9 -12 14
-19 10 -6 -4 -5 1 3 11 8 9 20 15 27 12 9 -3 11 1 7 12 -5 14 -3 14 18 -3 16
-14 20 -15 11 -3 -11 13 -11 22 -2 39 8 14 8 19 1 15 -7 -5 -9 -1 -5 9 5 13 9
13 23 3 14 -12 14 -11 3 4 -17 21 -12 69 8 86 13 11 13 11 0 7 -9 -3 -20 5
-27 21 -14 30 -8 48 12 40 16 -6 27 63 12 82 -5 7 -6 12 0 12 5 0 7 15 5 33
-4 38 39 124 59 119 9 -2 10 0 1 11 -9 10 -8 18 4 33 14 18 14 18 4 -6 -10
-23 -10 -24 4 -6 9 10 13 23 10 28 -3 4 2 11 10 14 9 3 16 13 16 21 0 8 6 13
13 10 6 -2 11 -9 10 -14 -1 -5 4 -10 12 -10 12 0 12 3 0 20 -18 26 -9 53 13
35 14 -12 14 -10 3 11 -7 13 -9 21 -4 18 5 -3 17 3 26 14 18 21 22 33 8 25 -5
-4 -7 3 -4 14 3 11 10 20 15 20 12 0 8 120 -4 137 -5 6 -5 14 2 18 5 3 10 14
9 23 0 14 -2 14 -8 -2 -7 -18 -11 -16 -47 18 -24 23 -31 34 -19 30 11 -4 17
-4 14 0 -4 4 -17 9 -29 11 -13 3 -27 10 -32 17 -4 7 -8 9 -8 5 0 -5 -7 -1 -16
8 -13 13 -19 13 -32 3 -9 -8 -13 -8 -9 -2 4 7 0 15 -9 18 -8 3 -12 2 -9 -4z
m47 -42 c85 -25 148 -124 133 -207 -9 -50 -25 -76 -91 -156 -89 -109 -127
-209 -114 -302 8 -57 -4 -54 -27 5 -42 109 -9 209 118 362 74 87 89 114 89
155 0 43 -75 89 -159 98 -23 3 -41 13 -53 31 l-20 26 43 0 c23 0 59 -5 81 -12z
m-132 -272 c0 -3 -4 -8 -10 -11 -5 -3 -10 -1 -10 4 0 6 5 11 10 11 6 0 10 -2
10 -4z m10 -352 c0 -8 -19 -13 -24 -6 -3 5 1 9 9 9 8 0 15 -2 15 -3z"/>
<path d="M2638 3211 c4 -10 7 -11 10 -3 2 7 8 12 14 12 6 0 7 -8 3 -17 -5 -14
-3 -15 6 -6 15 15 4 32 -20 30 -12 -1 -17 -6 -13 -16z"/>
<path d="M3114 3205 c3 -21 16 -31 16 -12 0 9 -4 18 -9 21 -5 4 -8 -1 -7 -9z"/>
<path d="M3185 3160 c3 -5 8 -10 11 -10 2 0 4 5 4 10 0 6 -5 10 -11 10 -5 0
-7 -4 -4 -10z"/>
<path d="M2945 3101 c-3 -5 -2 -12 3 -15 5 -3 9 1 9 9 0 17 -3 19 -12 6z"/>
<path d="M2026 3037 c3 -10 9 -15 12 -12 3 3 0 11 -7 18 -10 9 -11 8 -5 -6z"/>
<path d="M3191 3024 c0 -11 3 -14 6 -6 3 7 2 16 -1 19 -3 4 -6 -2 -5 -13z"/>
<path d="M3171 3014 c0 -11 3 -14 6 -6 3 7 2 16 -1 19 -3 4 -6 -2 -5 -13z"/>
<path d="M3227 3017 c-3 -8 1 -14 8 -14 7 0 11 6 8 14 -3 7 -6 13 -8 13 -2 0
-5 -6 -8 -13z"/>
<path d="M2056 3012 c-2 -4 4 -8 14 -8 10 0 16 4 14 8 -3 4 -9 8 -14 8 -5 0
-11 -4 -14 -8z"/>
<path d="M3000 2984 c0 -14 -2 -15 -17 -3 -17 13 -17 13 -3 -6 8 -11 15 -21
15 -22 0 -1 6 6 13 17 7 12 8 21 2 25 -6 3 -10 -1 -10 -11z"/>
<path d="M2106 2957 c3 -10 9 -15 12 -12 3 3 0 11 -7 18 -10 9 -11 8 -5 -6z"/>
<path d="M3186 2933 c-6 -14 -5 -15 5 -6 7 7 10 15 7 18 -3 3 -9 -2 -12 -12z"/>
<path d="M2135 2930 c-3 -6 1 -7 9 -4 18 7 21 14 7 14 -6 0 -13 -4 -16 -10z"/>
<path d="M3230 2579 c-7 -11 -10 -23 -7 -25 2 -2 9 7 15 21 14 30 7 33 -8 4z"/>
<path d="M1797 2495 c3 -8 9 -12 14 -9 12 7 11 11 -5 17 -10 4 -13 1 -9 -8z"/>
<path d="M2945 2489 c-4 -6 -5 -12 -2 -15 2 -3 7 2 10 11 7 17 1 20 -8 4z"/>
<path d="M2984 2250 c0 -13 4 -16 10 -10 7 7 7 13 0 20 -6 6 -10 3 -10 -10z"/>
<path d="M2340 2231 c0 -6 4 -13 10 -16 6 -3 7 1 4 9 -7 18 -14 21 -14 7z"/>
<path d="M2806 2212 c-3 -5 1 -9 9 -9 8 0 12 4 9 9 -3 4 -7 8 -9 8 -2 0 -6 -4
-9 -8z"/>
<path d="M2288 2203 c7 -3 16 -2 19 1 4 3 -2 6 -13 5 -11 0 -14 -3 -6 -6z"/>
<path d="M2883 2185 c0 -8 6 -16 14 -19 11 -4 11 -1 3 14 -13 24 -17 25 -17 5z"/>
<path d="M2700 2086 c0 -2 7 -7 16 -10 8 -3 12 -2 9 4 -6 10 -25 14 -25 6z"/>
<path d="M1925 3520 c-3 -5 -1 -10 4 -10 6 0 11 5 11 10 0 6 -2 10 -4 10 -3 0
-8 -4 -11 -10z"/>
<path d="M1866 3434 c-3 -8 -10 -13 -14 -10 -5 3 -9 -1 -9 -8 0 -8 5 -12 11
-10 15 6 39 44 27 44 -5 0 -12 -7 -15 -16z"/>
<path d="M1763 3372 c-1 -22 0 -24 9 -8 6 10 6 22 2 26 -5 5 -10 -3 -11 -18z"/>
<path d="M3175 3390 c-3 -5 -1 -10 4 -10 6 0 11 5 11 10 0 6 -2 10 -4 10 -3 0
-8 -4 -11 -10z"/>
<path d="M1694 3210 c2 -16 20 -14 24 2 3 10 2 10 -6 -1 -7 -9 -11 -10 -15 -2
-4 7 -5 8 -3 1z"/>
<path d="M3320 3135 c0 -5 5 -17 10 -25 5 -8 10 -10 10 -5 0 6 -5 17 -10 25
-5 8 -10 11 -10 5z"/>
<path d="M3341 2634 c0 -11 3 -14 6 -6 3 7 2 16 -1 19 -3 4 -6 -2 -5 -13z"/>
<path d="M3336 2592 c-3 -5 1 -9 9 -9 8 0 12 4 9 9 -3 4 -7 8 -9 8 -2 0 -6 -4
-9 -8z"/>
<path d="M3215 2295 c-25 -12 -26 -14 -5 -9 14 4 29 10 35 15 12 12 5 11 -30
-6z"/>
<path d="M3160 2236 c0 -2 8 -10 18 -17 15 -13 16 -12 3 4 -13 16 -21 21 -21
13z"/>
<path d="M3025 2080 c-3 -5 -1 -10 4 -10 6 0 11 5 11 10 0 6 -2 10 -4 10 -3 0
-8 -4 -11 -10z"/>
<path d="M2013 2055 c0 -12 52 -14 63 -2 5 4 0 5 -10 1 -11 -4 -17 -3 -14 2 4
5 -4 9 -16 9 -13 0 -23 -4 -23 -10z"/>
<path d="M2824 1940 c-6 -6 -42 -13 -81 -15 -38 -2 -86 -10 -106 -18 -26 -12
-37 -12 -41 -4 -3 9 -5 9 -5 0 -1 -7 -10 -22 -20 -32 -29 -29 -37 -85 -17
-116 15 -24 23 -55 9 -42 -3 4 -11 -1 -18 -10 -12 -16 -40 -10 -30 7 3 5 -9 5
-27 -1 -18 -5 -36 -16 -41 -24 -4 -8 -15 -15 -23 -15 -13 0 -12 5 5 33 11 17
27 32 34 31 7 -1 13 7 13 16 0 11 -6 16 -15 12 -8 -3 -12 -1 -8 5 4 6 -2 18
-13 28 -19 17 -21 17 -40 0 -15 -14 -20 -15 -20 -4 0 11 -2 11 -10 -1 -9 -13
-11 -13 -20 0 -6 9 -10 10 -10 3 0 -7 8 -16 18 -22 16 -9 16 -11 -3 -26 -11
-9 -14 -14 -7 -10 16 8 15 -3 -2 -20 -7 -8 -17 -11 -21 -7 -5 4 -5 2 -1 -5 3
-7 -2 -14 -14 -18 -11 -4 -18 -10 -15 -15 3 -5 1 -11 -5 -15 -6 -4 -7 -11 -4
-17 4 -7 2 -8 -4 -4 -11 6 -9 62 2 74 11 10 -37 42 -56 36 -10 -3 -30 -7 -45
-10 -16 -3 -36 -15 -46 -27 -10 -12 -16 -16 -12 -9 3 6 -1 15 -9 18 -9 3 -16
16 -16 28 0 17 2 18 10 6 16 -24 0 51 -16 78 -8 12 -10 22 -5 22 5 0 12 -7 15
-16 4 -9 9 -14 13 -11 12 13 -20 37 -40 31 -12 -4 -17 -2 -13 4 3 6 2 13 -4
17 -5 3 -10 1 -10 -6 0 -10 -3 -10 -12 -1 -14 14 -32 16 -24 4 3 -5 -1 -9 -9
-9 -8 0 -12 4 -10 8 3 4 -6 6 -19 5 -13 0 -24 -5 -23 -11 1 -5 -4 -9 -10 -8
-7 2 -13 -1 -13 -7 0 -5 -7 -7 -14 -4 -8 3 -25 -3 -37 -15 -12 -11 -26 -18
-31 -15 -4 3 -8 0 -8 -5 0 -6 -7 -11 -15 -11 -8 0 -15 -6 -15 -14 0 -8 -7 -16
-15 -20 -14 -5 -20 5 -16 27 1 5 -3 5 -9 2 -8 -5 -7 -14 3 -29 13 -19 13 -25
1 -41 -17 -23 -18 -39 -2 -29 7 4 8 3 4 -4 -10 -16 -17 -56 -9 -48 4 4 13 -4
19 -16 11 -20 12 -17 8 27 -7 68 17 110 81 146 75 42 135 55 174 39 61 -25 50
-96 -22 -147 -23 -17 -49 -33 -57 -36 -10 -4 -9 -6 6 -6 22 -1 54 -30 54 -49
0 -23 30 -12 44 16 22 42 113 102 155 102 22 0 41 -22 24 -27 -6 -2 -9 -12 -6
-23 3 -10 -2 -29 -11 -42 -21 -30 -21 -58 2 -58 20 1 52 23 52 37 0 6 14 29
30 51 21 30 37 42 55 42 34 0 31 -13 -10 -59 -37 -41 -44 -68 -21 -77 19 -7
64 23 81 55 19 37 53 71 70 71 23 0 18 -19 -16 -57 -16 -19 -27 -38 -24 -42 4
-3 19 8 33 26 37 43 102 94 113 87 17 -10 9 -40 -22 -83 -38 -51 -28 -71 19
-38 28 19 48 48 22 32 -5 -3 -10 -1 -10 4 0 6 7 11 15 11 8 0 15 -5 15 -12 0
-6 3 -8 7 -5 3 4 -2 17 -13 29 -10 12 -14 19 -8 15 7 -4 9 3 6 21 -6 35 -20
52 -38 45 -9 -3 -14 1 -14 13 0 16 2 17 10 4 5 -8 10 -10 10 -3 0 6 9 9 20 6
11 -3 20 -1 20 5 0 5 -19 12 -41 16 -40 6 -41 8 -35 38 9 46 41 75 100 89 46
11 210 19 201 10 -3 -2 2 -19 10 -37 13 -32 12 -35 -24 -91 -54 -83 -103 -175
-97 -181 8 -8 -27 -63 -47 -73 -24 -14 -32 11 -17 57 12 35 103 178 141 220
28 30 24 33 -28 28 -98 -9 -129 -14 -167 -25 l-38 -11 27 -14 c25 -13 29 -12
40 2 8 11 21 15 38 12 15 -3 24 -2 22 2 -2 4 9 7 25 8 16 0 31 -6 34 -14 3 -8
1 -14 -3 -14 -5 0 -12 6 -14 13 -3 6 -4 -1 -4 -18 1 -19 -3 -29 -10 -28 -8 2
-10 -4 -6 -14 5 -12 3 -14 -7 -8 -9 6 -11 4 -5 -5 4 -7 3 -15 -2 -19 -5 -3
-19 -23 -32 -44 -12 -20 -26 -35 -30 -33 -4 3 -6 -9 -5 -26 1 -19 -5 -36 -17
-46 -21 -18 -8 -45 18 -35 11 4 14 2 9 -5 -9 -16 -3 -15 40 3 26 11 34 11 31
2 -2 -6 -9 -11 -15 -10 -5 1 -9 -5 -7 -15 2 -9 4 -20 4 -24 1 -5 8 -8 17 -8 8
0 12 -5 9 -10 -4 -6 -11 -8 -16 -5 -5 4 -9 -5 -9 -19 0 -14 5 -26 12 -26 9 0
9 -3 0 -12 -17 -17 -20 -9 -25 50 -4 46 -17 87 -17 52 0 -7 -3 -10 -7 -7 -3 4
-15 0 -25 -9 -14 -13 -21 -14 -32 -5 -8 7 -21 9 -27 5 -8 -5 -10 -3 -4 7 6 11
5 12 -6 2 -17 -17 -30 -16 -23 1 3 8 1 17 -5 21 -6 3 -9 0 -5 -8 7 -18 -13
-26 -59 -23 -35 3 -51 -8 -25 -16 16 -6 17 -78 2 -78 -6 0 -9 13 -6 30 2 17
-1 37 -8 45 -13 15 -5 39 11 30 5 -4 9 -1 9 4 0 6 -9 11 -20 11 -18 0 -19 3
-10 20 6 11 15 18 21 15 5 -4 7 -10 4 -15 -3 -4 3 -7 12 -6 9 0 18 -6 20 -14
4 -13 3 -13 -6 0 -7 9 -11 10 -11 3 0 -16 17 -26 25 -13 4 6 10 8 15 5 4 -3
11 2 14 11 6 16 36 16 49 -1 5 -6 7 -4 4 5 -2 8 3 24 12 35 15 19 15 19 -4 6
-11 -8 -5 0 13 18 17 18 32 34 32 36 0 13 -35 -7 -75 -44 -25 -23 -51 -41 -58
-38 -22 7 -18 52 8 91 38 55 7 38 -44 -25 -24 -30 -48 -56 -53 -57 -4 -2 -11
10 -14 27 l-6 30 -24 -29 c-22 -26 -85 -58 -82 -42 0 4 -5 21 -12 37 l-12 30
-34 -31 c-18 -17 -43 -33 -57 -36 -22 -4 -23 -3 -17 32 4 20 10 43 14 51 5 8
-10 -5 -33 -28 -47 -50 -67 -54 -84 -15 -15 37 -32 30 -58 -21 -26 -52 -103
-133 -146 -153 -42 -21 -77 -15 -81 12 -4 29 78 113 151 154 32 18 57 36 57
41 0 31 -80 20 -135 -17 -46 -31 -57 -28 -41 11 10 22 36 44 92 77 125 72 162
127 73 107 -74 -17 -196 -90 -183 -110 4 -6 11 -6 19 1 8 7 20 8 26 4 7 -4 9
-3 5 4 -8 13 44 51 62 45 6 -3 12 1 12 7 0 7 6 10 14 7 8 -3 20 1 26 9 7 8 17
14 23 14 6 0 1 -9 -11 -20 -12 -11 -26 -20 -32 -20 -5 0 -10 -4 -10 -10 0 -5
-7 -7 -15 -3 -10 3 -15 1 -13 -7 2 -7 -4 -15 -12 -17 -13 -4 -13 -3 0 6 13 10
13 11 0 11 -8 0 -21 -9 -28 -20 -7 -11 -19 -20 -28 -20 -9 0 -12 -5 -8 -12 5
-8 2 -9 -10 -5 -9 4 -15 3 -11 -2 7 -13 -5 -42 -16 -35 -5 3 -9 2 -10 -3 0 -4
-2 -16 -4 -26 -2 -11 -1 -16 2 -14 7 8 32 -16 27 -25 -2 -4 0 -10 6 -13 6 -4
9 -1 8 7 -2 7 4 13 12 13 8 0 18 4 22 10 4 5 10 6 14 2 4 -4 -7 -20 -24 -36
-16 -16 -33 -27 -36 -24 -3 4 -6 0 -6 -8 -1 -10 -4 -9 -15 4 -7 11 -11 26 -8
35 4 12 1 11 -10 -3 -15 -19 -14 -21 6 -37 18 -14 19 -19 8 -32 -7 -9 -16 -14
-20 -12 -3 2 -6 -11 -6 -29 0 -18 4 -33 9 -32 5 1 11 -4 14 -12 2 -8 0 -11 -6
-7 -6 3 -13 2 -16 -3 -7 -11 13 -9 32 2 7 5 12 3 12 -6 0 -7 7 -14 15 -14 8 0
12 4 9 9 -3 4 -1 8 5 8 5 0 12 -4 15 -8 10 -16 59 -8 62 11 1 9 -2 15 -7 11
-5 -3 -9 -2 -9 3 1 4 19 22 40 38 46 35 101 99 105 123 2 9 4 19 5 22 0 3 5
-3 11 -13 5 -9 7 -23 3 -30 -5 -7 0 -6 11 3 17 14 18 13 12 -2 -4 -12 -2 -15
8 -11 8 3 12 10 8 16 -3 6 -1 7 6 3 9 -6 9 -11 1 -21 -15 -18 15 -14 33 5 9
10 9 11 0 6 -7 -4 -13 -2 -13 3 0 6 7 11 16 11 9 0 12 5 8 12 -4 7 -3 8 5 4 6
-4 9 -12 5 -17 -3 -6 3 -13 15 -16 12 -3 21 -10 21 -15 0 -6 -7 -8 -15 -4 -8
3 -15 1 -15 -4 0 -5 -6 -7 -12 -5 -7 3 -26 -12 -43 -32 -16 -21 -22 -32 -13
-25 10 8 19 9 22 4 6 -10 -22 -27 -38 -23 -5 1 -5 -4 1 -11 6 -7 11 -17 11
-21 0 -5 3 -11 6 -14 3 -3 4 4 1 15 -2 12 0 24 6 27 8 6 13 -8 10 -28 -1 -5 3
-6 8 -3 5 4 13 2 16 -4 5 -8 11 -7 21 1 17 14 19 -2 2 -21 -7 -8 -2 -5 12 6
42 35 67 36 91 3 11 -16 25 -29 31 -29 12 0 54 51 50 62 -3 12 11 9 32 -7 11
-8 29 -12 39 -9 13 4 17 2 13 -5 -4 -6 -2 -11 3 -11 6 0 11 7 11 15 0 8 -4 15
-8 15 -4 0 -8 18 -7 40 0 22 3 40 8 40 4 0 7 -13 7 -29 0 -41 9 -61 29 -61 9
0 21 -4 27 -10 6 -6 9 9 9 43 0 52 0 53 30 52 26 0 30 -4 35 -36 5 -29 3 -35
-12 -36 -14 -1 -16 2 -9 14 10 18 3 53 -10 53 -5 0 -9 -15 -9 -34 0 -19 -6
-37 -12 -40 -9 -4 -8 -5 2 -5 32 2 41 -1 34 -13 -6 -10 -5 -10 7 -1 15 12 70
13 62 1 -2 -5 1 -8 7 -8 7 0 10 6 7 14 -3 8 -1 17 6 20 7 3 2 3 -9 1 -28 -7
-54 18 -47 46 7 26 29 35 48 19 22 -19 18 -30 -11 -30 -15 0 -24 -5 -22 -12 7
-20 26 -20 44 0 19 23 44 18 44 -8 0 -22 36 -55 45 -41 3 6 22 9 41 7 19 -3
34 0 34 5 0 5 8 1 18 -8 11 -10 17 -21 15 -25 -2 -3 5 -5 14 -3 10 1 17 8 15
15 -1 7 10 23 25 36 16 14 20 22 11 18 -15 -5 -18 0 -18 24 0 19 -7 35 -17 41
-10 6 -14 11 -9 11 5 0 3 7 -4 15 -18 22 1 41 26 27 12 -7 21 -6 30 2 48 45
53 47 72 28 10 -10 24 -16 32 -14 7 3 10 0 7 -5 -3 -5 4 -10 16 -10 15 -2 18
0 8 6 -10 7 -10 10 -1 16 15 9 61 -15 53 -28 -3 -5 4 -4 15 2 32 17 46 13 25
-6 -10 -10 -13 -14 -6 -9 8 5 20 3 31 -5 15 -12 16 -12 6 1 -14 20 -11 46 5
42 7 -1 10 2 7 7 -4 5 -1 13 6 18 31 20 46 48 37 72 -9 22 -10 23 -35 6 -14
-9 -28 -14 -32 -11 -3 3 0 6 7 6 7 0 9 5 6 10 -3 6 -1 10 4 10 6 0 10 3 10 8
-1 4 -1 9 1 12 13 36 -1 112 -18 96 -3 -4 -12 4 -20 16 -9 16 -12 17 -8 4 5
-14 2 -17 -10 -12 -8 3 -20 6 -25 6 -6 0 -7 5 -3 12 5 7 3 8 -6 3 -10 -6 -10
-11 4 -20 15 -12 15 -13 0 -19 -9 -3 -20 -4 -25 -1 -5 4 -6 0 -3 -8 4 -10 -2
-14 -20 -12 -17 2 -23 -1 -20 -10 3 -7 -2 -15 -10 -18 -17 -7 -31 8 -22 22 3
5 -1 12 -10 15 -8 3 -12 11 -8 17 5 8 3 9 -6 4 -7 -4 -29 -9 -49 -11 -20 -2
-37 -8 -39 -14 -2 -6 -10 -3 -18 7 -10 12 -13 13 -9 3 6 -21 -50 -86 -60 -69
-5 7 -4 10 3 5 6 -3 13 3 17 14 3 11 11 20 16 20 6 0 7 5 4 10 -3 6 -1 10 5
10 6 0 8 5 5 10 -3 6 4 14 17 19 13 6 18 10 11 10 -7 1 -10 8 -7 16 4 8 10 13
14 10 4 -2 6 9 4 26 -2 18 0 28 6 24 6 -3 10 -15 10 -25 0 -10 4 -21 9 -24 20
-13 -4 42 -36 78 -27 33 -31 42 -20 55 10 13 7 12 -15 -2 -34 -21 -45 -22 -28
-2 14 17 9 20 -6 5z m-384 -174 c0 -16 -26 -46 -40 -46 -16 0 -21 19 -10 40
12 23 50 27 50 6z m746 -27 c3 -6 2 -15 -4 -21 -6 -6 -8 -17 -5 -24 3 -8 -2
-25 -11 -39 -17 -25 -22 -65 -8 -65 10 0 55 31 64 44 5 7 8 4 8 -6 0 -19 -89
-100 -104 -95 -6 2 -11 22 -10 45 l1 41 -37 -41 c-42 -48 -67 -47 -77 3 l-6
31 -25 -27 c-29 -32 -84 -57 -106 -49 -26 10 -39 59 -27 97 17 52 84 107 130
107 50 0 22 -66 -44 -101 -51 -27 -56 -52 -12 -57 22 -3 38 8 85 57 81 85 168
131 188 100z m-1073 -44 c-2 -8 -19 -25 -37 -39 l-32 -24 -13 21 c-8 12 -10
19 -6 15 4 -4 19 6 32 21 26 29 67 33 56 6z m717 -41 c0 -8 -19 -13 -24 -6 -3
5 1 9 9 9 8 0 15 -2 15 -3z m-429 -17 c-6 -8 -9 -16 -6 -19 3 -2 -2 -5 -10 -5
-13 0 -13 3 2 19 19 21 31 25 14 5z m410 -20 c-7 -7 -3 -23 10 -49 11 -21 17
-43 14 -48 -3 -6 1 -7 10 -4 11 4 14 2 9 -9 -3 -8 0 -18 5 -22 6 -3 9 -11 5
-16 -3 -5 -10 -7 -15 -3 -16 10 -40 -17 -34 -37 5 -15 1 -19 -21 -19 -22 0
-24 -2 -14 -14 6 -8 19 -12 28 -9 14 5 15 4 4 -8 -9 -10 -17 -11 -30 -3 -25
16 -22 57 6 69 31 14 27 26 -7 19 -33 -7 -49 9 -31 31 6 8 9 19 5 24 -3 6 1
24 10 40 8 17 14 34 14 38 -4 18 14 41 27 36 11 -4 12 -9 5 -16z m-544 0 c0
-8 -6 -14 -14 -14 -9 0 -10 4 -2 14 6 7 12 13 14 13 1 0 2 -6 2 -13z m683 9
c0 -2 -8 -10 -17 -17 -16 -13 -17 -12 -4 4 13 16 21 21 21 13z m-573 -32 c-3
-3 -12 -4 -19 -1 -8 3 -5 6 6 6 11 1 17 -2 13 -5z m-460 -39 c0 -10 -6 -14
-14 -10 -8 3 -18 5 -21 6 -4 0 2 4 13 9 11 5 20 9 21 9 0 1 1 -6 1 -14z m371
-39 c-2 -4 8 -14 22 -21 22 -12 30 -11 63 8 32 18 40 19 47 7 6 -9 5 -17 -2
-21 -6 -4 -7 -12 -3 -19 5 -9 4 -11 -3 -6 -7 4 -12 2 -12 -3 0 -6 5 -11 12
-11 9 0 9 -3 0 -12 -7 -7 -12 -20 -12 -30 0 -10 5 -18 12 -18 9 0 9 -3 1 -11
-6 -6 -17 -8 -23 -4 -11 7 -10 37 3 110 4 17 4 24 1 18 -3 -7 -12 -13 -20 -13
-8 0 -14 -5 -14 -11 0 -5 5 -7 10 -4 6 3 10 1 10 -6 0 -7 -10 -9 -27 -6 -24 5
-26 4 -10 -8 14 -10 16 -17 7 -40 -6 -16 -8 -35 -5 -44 3 -8 3 -12 -1 -9 -3 4
-15 -3 -25 -15 -15 -18 -20 -20 -31 -9 -11 11 -10 13 7 10 26 -4 32 30 10 71
-14 28 -14 31 0 31 8 0 15 -9 15 -19 0 -11 5 -23 10 -26 22 -14 8 33 -17 56
-14 13 -23 18 -18 10 5 -9 3 -12 -6 -9 -8 3 -13 10 -12 16 1 5 -5 16 -14 24
-14 11 -16 11 -8 -2 17 -27 13 -38 -11 -35 -14 1 -27 -2 -30 -6 -5 -9 9 -13
34 -10 13 2 16 -5 26 -51 4 -19 2 -28 -6 -28 -8 0 -13 12 -13 28 0 15 -4 28
-10 29 -5 1 -10 -11 -10 -27 0 -18 -5 -30 -12 -30 -8 0 -13 13 -13 34 0 19 -4
38 -10 41 -14 9 17 53 49 70 27 15 45 15 39 1z m382 8 c0 -8 -19 -13 -24 -6
-3 5 1 9 9 9 8 0 15 -2 15 -3z m-220 -54 c0 -5 -2 -10 -4 -10 -3 0 -8 5 -11
10 -3 6 -1 10 4 10 6 0 11 -4 11 -10z m247 -15 c-12 -9 -14 -14 -5 -23 9 -9 9
-12 1 -12 -7 0 -15 5 -18 10 -10 17 1 37 20 37 16 0 16 -1 2 -12z m178 -19
c16 -55 15 -63 -10 -63 -31 0 -41 13 -25 32 8 10 9 15 2 15 -6 0 -10 8 -9 19
1 13 7 17 20 13 10 -3 20 -10 22 -16z m-684 -28 c6 -38 6 -39 -53 -29 -10 1 2
31 13 31 4 0 6 -7 3 -15 -4 -8 -1 -15 4 -15 6 0 10 13 10 30 -1 24 -4 28 -15
19 -13 -12 -19 2 -6 15 17 16 38 -1 44 -36z m-287 -69 c5 -4 -3 -6 -17 -6 -15
1 -27 5 -27 9 0 9 24 17 30 9 3 -3 9 -9 14 -12z m970 5 c5 -14 4 -15 -9 -4
-17 14 -19 20 -6 20 5 0 12 -7 15 -16z"/>
<path d="M2908 1680 c-17 -17 -28 -34 -25 -37 9 -8 54 24 67 47 17 31 -6 25
-42 -10z"/>
<path d="M3083 1665 c-41 -27 -53 -41 -53 -60 0 -14 4 -25 9 -25 9 0 111 105
111 114 0 11 -16 4 -67 -29z"/>
<path d="M2810 1550 c6 -11 13 -20 16 -20 2 0 0 9 -6 20 -6 11 -13 20 -16 20
-2 0 0 -9 6 -20z"/>
<path d="M2802 1516 c7 -8 15 -12 17 -11 5 6 -10 25 -20 25 -5 0 -4 -6 3 -14z"/>
<path d="M2770 1515 c0 -5 5 -17 10 -25 5 -8 10 -10 10 -5 0 6 -5 17 -10 25
-5 8 -10 11 -10 5z"/>
<path d="M2780 1430 c0 -5 5 -10 10 -10 6 0 10 5 10 10 0 6 -4 10 -10 10 -5 0
-10 -4 -10 -10z"/>
<path d="M2226 1492 c-3 -5 1 -9 9 -9 8 0 12 4 9 9 -3 4 -7 8 -9 8 -2 0 -6 -4
-9 -8z"/>
<path d="M2850 1430 c0 -5 5 -10 10 -10 6 0 10 5 10 10 0 6 -4 10 -10 10 -5 0
-10 -4 -10 -10z"/>
<path d="M2857 1403 c-4 -3 -7 -11 -7 -17 0 -6 5 -5 12 2 6 6 9 14 7 17 -3 3
-9 2 -12 -2z"/>
<path d="M2630 1930 c-9 -6 -10 -10 -3 -10 6 0 15 5 18 10 8 12 4 12 -15 0z"/>
<path d="M3176 1788 c3 -5 10 -6 15 -3 13 9 11 12 -6 12 -8 0 -12 -4 -9 -9z"/>
<path d="M2971 1774 c0 -11 3 -14 6 -6 3 7 2 16 -1 19 -3 4 -6 -2 -5 -13z"/>
<path d="M2178 1656 c-53 -31 -78 -56 -78 -78 0 -23 11 -23 43 2 30 24 92 100
80 99 -4 0 -25 -11 -45 -23z"/>
<path d="M3230 1576 c0 -7 40 -14 44 -7 3 4 -6 8 -20 9 -13 1 -24 0 -24 -2z"/>
<path d="M1937 1509 c-63 -42 -129 -119 -102 -119 28 0 155 117 155 142 0 12
-2 11 -53 -23z"/>
<path d="M3080 1500 c-9 -6 -10 -10 -3 -10 6 0 15 5 18 10 8 12 4 12 -15 0z"/>
<path d="M2084 1456 c1 -8 5 -18 8 -22 4 -3 5 1 4 10 -1 8 -5 18 -8 22 -4 3
-5 -1 -4 -10z"/>
<path d="M2615 1430 c-3 -5 1 -10 9 -10 9 0 16 5 16 10 0 6 -4 10 -9 10 -6 0
-13 -4 -16 -10z"/>
<path d="M2675 1380 c3 -5 8 -10 11 -10 2 0 4 5 4 10 0 6 -5 10 -11 10 -5 0
-7 -4 -4 -10z"/>
<path d="M2915 1360 c-3 -5 -1 -10 4 -10 6 0 11 5 11 10 0 6 -2 10 -4 10 -3 0
-8 -4 -11 -10z"/>
<path d="M2482 1336 c7 -8 15 -12 17 -11 5 6 -10 25 -20 25 -5 0 -4 -6 3 -14z"/>
<path d="M2579 1333 c-13 -16 -12 -17 3 -5 9 8 23 10 29 6 8 -4 9 -3 5 4 -10
17 -21 15 -37 -5z"/>
<path d="M2700 1346 c0 -2 8 -10 18 -17 15 -13 16 -12 3 4 -13 16 -21 21 -21
13z"/>
<path d="M2759 1333 c-13 -16 -12 -17 4 -4 9 7 17 15 17 17 0 8 -8 3 -21 -13z"/>
<path d="M2792 1337 c-8 -9 -4 -13 19 -13 17 -1 29 -1 27 0 -2 1 -10 7 -19 14
-13 10 -19 10 -27 -1z"/>
<path d="M2390 1328 c0 -4 4 -8 9 -8 6 0 12 4 15 8 3 5 -1 9 -9 9 -8 0 -15 -4
-15 -9z"/>
<path d="M2670 1330 c8 -5 20 -10 25 -10 6 0 3 5 -5 10 -8 5 -19 10 -25 10 -5
0 -3 -5 5 -10z"/>
</g>
</svg>
